# xmcd
#
# Track frame offsets: 
#        150
#        17836
#        34690
#        49728
#        66384
#        82663
#        100781
#        114313
#        128357
#        143440
#        165263
#        182026
#
# Disc length: 2614 seconds
#
# Revision: 0
# Processed by: cddbd v1.5.2PL0 Copyright (c) Steve Scherf et al.
# Submitted via: ExactAudioCopy v0.95b3
#
DISCID=860a340c
DTITLE=Bob Seger  - Face the Promise  FLAC
DYEAR=1900
DGENRE=
TTITLE0=Wreck This Heart
TTITLE1=Wait For Me
TTITLE2=Face The Promise
TTITLE3=No Matter Who You Are
TTITLE4=Are You
TTITLE5=Simplicity
TTITLE6=No More
TTITLE7=Real Mean Bottle (With Kid Rock)
TTITLE8=Won't Stop
TTITLE9=Between
TTITLE10=The Answer's In The Question (With Patty Loveless)
TTITLE11=The Long Goodbye
EXTD=
EXTT0=
EXTT1=
EXTT2=
EXTT3=
EXTT4=
EXTT5=
EXTT6=
EXTT7=
EXTT8=
EXTT9=
EXTT10=
EXTT11=
PLAYORDER=
